# xmcd
#
# Track frame offsets:
# 150
# 20921
# 41692
# 62463
# 83234
# 104005
# 124776
# 145547
# 166318
# 187089
# 207860
# 228631
# 249402
# 270173
# 290944
# 311715
# 332486
#
# Disc length: 4710 seconds
#
#
# Revision: 0
# Processed by: cddbd v1.4PL0 Copyright (c) Steve Scherf et al.
# Submitted via: FreeRIP 2.40 
#
DISCID=fa126411
DTITLE=Johnny Cash - Johnny Cash
DYEAR=1900
DGENRE=Country
TTITLE0=Paybacks Are Hell
TTITLE1=Paybacks Are Hell
TTITLE2=Paybacks Are Hell
TTITLE3=Paybacks Are Hell
TTITLE4=Paybacks Are Hell
TTITLE5=Paybacks Are Hell
TTITLE6=Paybacks Are Hell
TTITLE7=Paybacks Are Hell
TTITLE8=Paybacks Are Hell
TTITLE9=Paybacks Are Hell
TTITLE10=Paybacks Are Hell
TTITLE11=Paybacks Are Hell
TTITLE12=Paybacks Are Hell
TTITLE13=Paybacks Are Hell
TTITLE14=Paybacks Are Hell
TTITLE15=Paybacks Are Hell
TTITLE16=Paybacks Are Hell
EXTD=Johnny Cash
EXTT0=Paybacks Are Hell
EXTT1=Paybacks Are Hell
EXTT2=Paybacks Are Hell
EXTT3=Paybacks Are Hell
EXTT4=Paybacks Are Hell
EXTT5=Paybacks Are Hell
EXTT6=Paybacks Are Hell
EXTT7=Paybacks Are Hell
EXTT8=Paybacks Are Hell
EXTT9=Paybacks Are Hell
EXTT10=Paybacks Are Hell
EXTT11=Paybacks Are Hell
EXTT12=Paybacks Are Hell
EXTT13=Paybacks Are Hell
EXTT14=Paybacks Are Hell
EXTT15=Paybacks Are Hell
EXTT16=Paybacks Are Hell
PLAYORDER=
